<?xml version="1.0" encoding="UTF-8"?>
<svg version="1.1" xmlns="http://www.w3.org/2000/svg" width="100" height="56">
<path d="M0 0 C0.66 0 1.32 0 2 0 C1.50104522 7.15168515 -1.31563815 13.41291281 -4 20 C-3.67 20.33 -3.34 20.66 -3 21 C-2.61328125 20.4225 -2.2265625 19.845 -1.828125 19.25 C-1.30734375 18.5075 -0.7865625 17.765 -0.25 17 C0.26046875 16.2575 0.7709375 15.515 1.296875 14.75 C1.85890625 14.1725 2.4209375 13.595 3 13 C4.32 13 5.64 13 7 13 C7.95946595 17.61965088 7.96102244 21.68129125 7.5625 26.375 C7.46066406 27.62023437 7.35882812 28.86546875 7.25390625 30.1484375 C7.17011719 31.08945312 7.08632813 32.03046875 7 33 C7.71285156 32.02160156 8.42570312 31.04320313 9.16015625 30.03515625 C25.05515864 8.25805784 25.05515864 8.25805784 30 4 C30.99 4 31.98 4 33 4 C32.40068934 11.30801209 30.35084274 17.9530074 28.1875 24.9375 C25.06351068 35.22225859 22.25298004 45.49103391 20 56 C19.34 56 18.68 56 18 56 C18.58697444 49.62622321 19.65157432 43.63040471 21.25 37.4375 C21.46744873 36.57995117 21.68489746 35.72240234 21.90893555 34.83886719 C23.98280117 26.79919882 26.41137297 18.88705087 29 11 C28.505 10.505 28.505 10.505 28 10 C22.43892896 17.1678559 16.94802682 24.36123157 11.69140625 31.7578125 C10.21552694 33.71428993 8.89762399 35.45153883 7 37 C6.01 37 5.02 37 4 37 C3.87890689 29.92278069 4.14626761 23.02804699 5 16 C1.15114106 19.4027412 -1.06684933 23.24161569 -3.5 27.6875 C-3.89437256 28.39777344 -4.28874512 29.10804687 -4.69506836 29.83984375 C-7.41306802 34.78720124 -9.85403101 39.77503202 -12 45 C-12.66 45 -13.32 45 -14 45 C-13.36106762 38.87970036 -11.66555582 33.33401356 -9.75 27.5 C-9.43788574 26.53618408 -9.12577148 25.57236816 -8.80419922 24.5793457 C-7.87528897 21.71762604 -6.93818945 18.85868861 -6 16 C-5.48677779 14.42063834 -4.97373952 12.84121689 -4.4609375 11.26171875 C-1.15181682 1.15181682 -1.15181682 1.15181682 0 0 Z M-6 24 C-5 26 -5 26 -5 26 Z " fill="#000000" transform="translate(14,0)"/>
<path d="M0 0 C-0.33 1.32 -0.66 2.64 -1 4 C-1.495 3.505 -1.495 3.505 -2 3 C-10.74515054 2.06966484 -18.39058107 5.91635688 -25.11328125 11.2890625 C-29.33406441 15.11660499 -34.04159424 19.53707867 -36 25 C-36.23194011 27.6017578 -36.23194011 27.6017578 -35 30 C-32.6480187 31.35945722 -30.63644028 32.317609 -28.125 33.25 C-27.16787109 33.63285156 -27.16787109 33.63285156 -26.19140625 34.0234375 C-19.73536309 36.62244972 -19.73536309 36.62244972 -13 36 C-14.375 38 -14.375 38 -16 40 C-16.66 40 -17.32 40 -18 40 C-18.0928125 41.3303125 -18.0928125 41.3303125 -18.1875 42.6875 C-19.19411651 46.79139808 -20.7493857 48.36855033 -24 51 C-24.99 51 -25.98 51 -27 51 C-26.56089921 46.16989127 -25.57142007 44.22579877 -22 41 C-22 40.34 -22 39.68 -22 39 C-22.97582031 38.61328125 -23.95164062 38.2265625 -24.95703125 37.828125 C-26.24244064 37.30270219 -27.5275831 36.77662604 -28.8125 36.25 C-29.77639648 35.87101562 -29.77639648 35.87101562 -30.75976562 35.484375 C-34.51274524 33.92873578 -37.08794413 32.66715193 -39 29 C-38.89832726 23.50967225 -37.28411406 20.3162642 -34 16 C-33.46375 15.195625 -32.9275 14.39125 -32.375 13.5625 C-23.69121325 4.19315114 -12.73724308 -0.97561862 0 0 Z " fill="#000000" transform="translate(89,2)"/>
</svg>
